# xmcd
#
# Track frame offsets:
#	150
#	26851
#	41776
#	62048
#	82577
#	100733
#	113832
#	124346
#	155906
#	174326
#	196153
#	214064
#	228592
#
# Disc length: 3306 seconds
#
# Revision: 0
# Processed by: cddbd v1.5.2PL0 Copyright (c) Steve Scherf et al.
# Submitted via: dBpowerAMP V4.0
#
DISCID=ae0ce80d
DTITLE=Rachel Brooke - Down in the Barnyard
DYEAR=1900
DGENRE=Alt Country
TTITLE0=The Barnyard
TTITLE1=Lonesome For You
TTITLE2=Must Be Somethin' In the Water
TTITLE3=City of Shame
TTITLE4=Me and Rose Connelly
TTITLE5=How Cold
TTITLE6=Meet Me By the Apple Tree
TTITLE7=The Legend of Morrow Road
TTITLE8=Please Give Me A Reason
TTITLE9=Gather and Hear
TTITLE10=Mean Kind of Blues
TTITLE11=I Don't Worry
TTITLE12=Don't Forget Me When I Die
EXTD=
EXTT0=
EXTT1=
EXTT2=
EXTT3=
EXTT4=
EXTT5=
EXTT6=
EXTT7=
EXTT8=
EXTT9=
EXTT10=
EXTT11=
EXTT12=
PLAYORDER=
